<?xml version="1.0" encoding="UTF-8"?>
<svg viewBox="0 0 160 160" xmlns="http://www.w3.org/2000/svg">
 <defs>
  <linearGradient id="e" x1=".19091" x2="1.1454" y1=".68421" y2="-.17105">
   <stop stop-color="#323232" offset="0"/>
   <stop offset=".5"/>
   <stop stop-color="#fff" offset="1"/>
  </linearGradient>
  <linearGradient id="d" x2="0" y1=".3906" y2=".01374">
   <stop stop-color="#fff" stop-opacity="0" offset="0"/>
   <stop stop-color="#fff" offset="1"/>
  </linearGradient>
  <radialGradient id="a" fx=".51299" fy=".09211">
   <stop stop-opacity=".53725" offset="0"/>
   <stop stop-color="#fff" stop-opacity=".26667" offset=".5"/>
   <stop stop-opacity=".13333" offset=".75"/>
   <stop stop-opacity="0" offset="1"/>
  </radialGradient>
  <radialGradient id="c" cx=".48684" cy=".44079" r=".76976" fx=".53289" fy=".01316">
   <stop stop-color="#fff" offset="0"/>
   <stop stop-color="#dadada" offset=".5038"/>
   <stop stop-color="#bdbdbd" offset=".5138"/>
   <stop stop-color="#dedede" offset=".64667"/>
   <stop stop-color="#fff" offset="1"/>
  </radialGradient>
  <radialGradient id="b" cx=".48684" cy=".46053" r=".76976" fx=".52632" fy=".71711">
   <stop stop-opacity="0" offset="0"/>
   <stop stop-opacity="0" offset=".5"/>
   <stop offset="1"/>
  </radialGradient>
 </defs>
 <path transform="matrix(2.7306 0 0 1.4884 -191.09 -608.76)" d="m127.4 483.73a27.352 27.352 0 1 0 -54.704 0 27.352 27.352 0 1 0 54.704 0z" fill="url(#a)" fill-rule="evenodd"/>
 <path transform="matrix(1.7364 0 0 1.7364 -92.186 -774.4)" d="m127.4 483.73a27.352 27.352 0 1 0 -54.704 0 27.352 27.352 0 1 0 54.704 0z" fill="url(#c)" fill-rule="evenodd"/>
 <path transform="matrix(1.7364 0 0 1.7364 -91.905 -774.47)" d="m127.4 483.73a27.352 27.352 0 1 0 -54.704 0 27.352 27.352 0 1 0 54.704 0z" fill="url(#b)" fill-rule="evenodd"/>
 <path transform="matrix(1.2917 0 0 1.5246 -118.66 -740.16)" d="m184.98 527.64a29.511 29.511 0 1 0 -59.022 0 29.511 29.511 0 1 0 59.022 0z" fill="url(#d)" fill-rule="evenodd"/>
 <path d="m56.45 78.082 51.204 0.43382-24.508-35.218-26.696 34.785z" fill="url(#e)" fill-rule="evenodd" stroke="#000" stroke-linecap="round" stroke-linejoin="round" stroke-opacity=".27273" stroke-width="5.125"/>
</svg>
